<svg width="40" height="40" viewBox="0 0 150 150" fill="none" xmlns="http://www.w3.org/2000/svg">
<path d="M53.7725 86.9619H36.2676V126H14.2949V19.3594H53.9189C66.5166 19.3594 76.2334 22.167 83.0693 27.7822C89.9053 33.3975 93.3232 41.332 93.3232 51.5859C93.3232 58.8613 91.7363 64.9404 88.5625 69.8232C85.4375 74.6572 80.6768 78.5146 74.2803 81.3955L97.3516 124.975V126H73.7676L53.7725 86.9619ZM36.2676 69.1641H53.9922C59.5098 69.1641 63.7822 67.7725 66.8096 64.9893C69.8369 62.1572 71.3506 58.2754 71.3506 53.3438C71.3506 48.3145 69.9102 44.3594 67.0293 41.4785C64.1973 38.5977 59.8271 37.1572 53.9189 37.1572H36.2676V69.1641ZM109.803 115.6C109.803 112.23 110.926 109.496 113.172 107.396C115.467 105.297 118.323 104.247 121.741 104.247C125.208 104.247 128.064 105.297 130.311 107.396C132.605 109.496 133.753 112.23 133.753 115.6C133.753 118.92 132.63 121.63 130.384 123.729C128.138 125.78 125.257 126.806 121.741 126.806C118.274 126.806 115.418 125.78 113.172 123.729C110.926 121.63 109.803 118.92 109.803 115.6Z" fill="#21c998"/>
<rect x="1" y="1" width="148" height="148" stroke="#21c998" stroke-width="5"/>
</svg>
